Coordinates
version=1
nRows=11
nColumns=63
inDegrees=yes

Units are S.I. units (second, meters, Newtons, ...)
If the header above contains a line with 'inDegrees', this indicates whether rotational values are in degrees (yes) or radians (no).

endheader
time	pelvis_tilt	pelvis_list	pelvis_rotation	pelvis_tx	pelvis_ty	pelvis_tz	hip_flexion_r	hip_adduction_r	hip_rotation_r	knee_angle_r	knee_angle_r_beta	ankle_angle_r	subtalar_angle_r	mtp_angle_r	hip_flexion_l	hip_adduction_l	hip_rotation_l	knee_angle_l	knee_angle_l_beta	ankle_angle_l	subtalar_angle_l	mtp_angle_l	L5_S1_Flex_Ext	L5_S1_Lat_Bending	L5_S1_axial_rotation	L4_L5_Flex_Ext	L4_L5_Lat_Bending	L4_L5_axial_rotation	L3_L4_Flex_Ext	L3_L4_Lat_Bending	L3_L4_axial_rotation	L2_L3_Flex_Ext	L2_L3_Lat_Bending	L2_L3_axial_rotation	L1_L2_Flex_Ext	L1_L2_Lat_Bending	L1_L2_axial_rotation	L1_T12_Flex_Ext	L1_T12_Lat_Bending	L1_T12_axial_rotation	Abs_r3	Abs_r2	Abs_r1	Abs_t1	Abs_t2	neck_flexion	neck_bending	neck_rotation	arm_flex_r	arm_add_r	arm_rot_r	elbow_flex_r	pro_sup_r	wrist_flex_r	wrist_dev_r	arm_flex_l	arm_add_l	arm_rot_l	elbow_flex_l	pro_sup_l	wrist_flex_l	wrist_dev_l
1.073171	1.158194	2.313974	97.355006	0.186268	0.796733	0.686770	-6.071271	0.733702	-14.169769	14.576053	0.254400	40.482013	3.809974	0.000000	-8.472163	-0.138752	18.190972	4.143416	0.072316	34.910500	-11.234548	0.000000	-0.143083	0.586726	0.043137	-0.265719	0.780345	0.045833	-0.235070	1.426565	0.045833	-0.163529	1.426565	0.037745	-0.132867	1.196451	0.035049	-0.081757	0.908838	0.032353	-1.022025	6.637158	0.239914	0.000000	0.000000	11.297500	-1.055206	12.851343	13.175497	-15.055694	89.405787	23.578962	27.580400	-6.366428	-4.315620	8.256602	-8.243361	24.279070	48.205244	90.882337	-8.289431	3.711984
1.097561	1.426859	1.688237	97.503514	0.184725	0.796535	0.687936	-5.160354	0.753508	-14.681527	14.857015	0.259304	40.591758	4.266128	0.000000	-7.194602	-0.202249	16.360341	5.107930	0.089150	35.823811	-8.918916	0.000000	-0.130203	0.647640	0.007062	-0.241800	0.861361	0.007503	-0.213911	1.574672	0.007503	-0.148809	1.574672	0.006179	-0.120907	1.320667	0.005737	-0.074398	1.003194	0.005296	-0.930027	7.326233	0.039274	0.000000	0.000000	11.935506	-1.571437	14.377943	13.422523	-15.583082	89.541621	23.445429	24.971984	-5.312278	-4.929467	6.668012	-8.816257	18.761395	52.360296	90.989079	-8.914397	4.513772
1.121951	1.754076	0.943756	97.752290	0.183219	0.796203	0.688908	-4.140501	0.831153	-15.337346	15.094349	0.263446	40.699982	4.829425	0.000000	-5.775850	-0.330858	14.589846	6.069404	0.105931	36.745708	-6.502549	0.000000	-0.115392	0.711347	-0.043886	-0.214295	0.946091	-0.046628	-0.189578	1.729569	-0.046628	-0.131882	1.729569	-0.038400	-0.107153	1.450579	-0.035657	-0.065935	1.101876	-0.032914	-0.824234	8.046898	-0.244079	0.000000	0.000000	12.937766	-2.093299	15.994577	13.775677	-15.833502	91.197664	22.949473	22.596527	-4.457240	-5.649182	5.132544	-9.275031	13.553107	56.064867	91.016434	-9.800135	5.030449
1.146341	2.136520	0.087692	98.064920	0.181807	0.795698	0.689641	-3.025718	0.973817	-15.988292	15.277065	0.266635	40.764765	5.330575	0.000000	-4.257385	-0.519393	12.959058	6.976779	0.121768	37.646505	-4.131726	0.000000	-0.096030	0.775097	-0.094868	-0.178338	1.030879	-0.100797	-0.157768	1.884571	-0.100797	-0.109753	1.884571	-0.083009	-0.089174	1.580578	-0.077080	-0.054872	1.200625	-0.071151	-0.685936	8.768051	-0.527626	0.000000	0.000000	14.235662	-2.637384	17.520142	14.170982	-15.815451	94.283635	22.078321	20.396992	-3.912967	-6.426277	3.878518	-9.546720	9.834001	58.985338	90.311071	-10.898262	5.195729
1.170732	2.564456	-0.869086	98.411386	0.180538	0.794985	0.690167	-1.820524	1.175966	-16.574807	15.417564	0.269087	40.782411	5.701973	0.000000	-2.669476	-0.759605	11.488516	7.805016	0.136223	38.496825	-1.884886	0.000000	-0.071036	0.835669	-0.140321	-0.131922	1.111440	-0.149091	-0.116706	2.031846	-0.149091	-0.081187	2.031846	-0.122781	-0.065964	1.704096	-0.114011	-0.040590	1.294451	-0.105241	-0.507405	9.453256	-0.780423	0.000000	0.000000	15.760210	-3.198130	18.823944	14.567777	-15.548415	98.686550	20.834621	18.313775	-3.671837	-7.215199	2.993184	-9.593252	7.941945	60.906926	89.175299	-12.097297	5.119364
1.195122	3.025494	-1.914326	98.786381	0.179427	0.794006	0.690552	-0.526221	1.412857	-17.150747	15.545283	0.271316	40.775601	5.977728	0.000000	-1.031732	-1.035397	10.211798	8.541959	0.149085	39.272543	0.174768	0.000000	-0.039464	0.890136	-0.179505	-0.073289	1.183882	-0.190724	-0.064836	2.164278	-0.190724	-0.045104	2.164278	-0.157067	-0.036646	1.815166	-0.145848	-0.022550	1.378821	-0.134629	-0.281889	10.069402	-0.998353	0.000000	0.000000	17.429689	-3.760327	19.846736	14.927149	-15.065999	104.207984	19.261205	16.205472	-3.739842	-7.981487	2.334274	-9.538180	6.486554	62.039908	89.192303	-13.116969	5.346706
1.219512	3.542545	-3.028302	99.161024	0.178453	0.792749	0.690988	0.868478	1.701725	-17.605785	15.690033	0.273843	40.711459	6.015701	0.000000	0.652915	-1.368193	9.026325	9.206166	0.160678	39.976227	2.125472	0.000000	-0.002570	0.941590	-0.193888	-0.004773	1.252315	-0.206006	-0.004223	2.289383	-0.206006	-0.002938	2.289383	-0.169652	-0.002387	1.920091	-0.157534	-0.001469	1.458524	-0.145416	-0.018359	10.651460	-1.078349	0.000000	0.000000	19.154405	-4.333778	20.510691	15.176568	-14.476704	110.462467	17.451129	13.979237	-4.072630	-8.691253	2.123346	-9.322582	6.493032	62.167606	89.172975	-13.999145	5.648603
1.243902	4.095966	-4.215685	99.532294	0.177638	0.791174	0.691661	2.391514	1.996150	-17.974937	15.886686	0.277275	40.604805	5.858267	0.000000	2.397825	-1.718800	7.981629	9.799820	0.171039	40.567527	3.889624	0.000000	0.038806	0.987201	-0.170054	0.072067	1.312977	-0.180683	0.063755	2.400280	-0.180683	0.044352	2.400280	-0.148797	0.036036	2.013100	-0.138169	0.022174	1.529174	-0.127541	0.277190	11.167414	-0.945790	0.000000	0.000000	20.868309	-4.879621	20.776441	15.253524	-13.841385	117.033917	15.503807	11.606091	-4.613542	-9.320922	2.388759	-9.010352	7.703936	61.337547	89.033126	-14.722357	5.961050
1.268293	4.652262	-5.490520	99.881048	0.177062	0.789243	0.692705	4.070424	2.268505	-18.227478	16.153919	0.281939	40.462970	5.496689	0.000000	4.219382	-2.061937	7.044574	10.324329	0.180194	41.037656	5.492024	0.000000	0.082072	1.023094	-0.104821	0.152415	1.360716	-0.111372	0.134836	2.487552	-0.111372	0.093800	2.487552	-0.091718	0.076212	2.086294	-0.085167	0.046896	1.584773	-0.078615	0.586230	11.573449	-0.582981	0.000000	0.000000	22.541310	-5.381534	20.695900	15.171234	-13.198094	123.751923	13.519404	9.375999	-5.347801	-9.764770	2.885777	-8.686512	8.956264	59.924925	88.945899	-14.920473	6.483506
1.292683	5.188558	-6.853039	100.178482	0.176766	0.786974	0.694224	5.912075	2.508826	-18.312350	16.498328	0.287950	40.278958	4.914866	0.000000	6.123438	-2.380995	6.204915	10.790912	0.188337	41.376746	6.892877	0.000000	0.123975	1.047569	0.009657	0.230234	1.393267	0.010261	0.203679	2.547059	0.010261	0.141691	2.547059	0.008450	0.115123	2.136203	0.007847	0.070839	1.622684	0.007243	0.885543	11.850309	0.053711	0.000000	0.000000	24.116206	-5.808989	20.316229	14.967097	-12.586662	130.500527	11.569916	7.443440	-6.218407	-9.974167	3.567403	-8.316829	10.311496	58.070175	88.813371	-14.657210	7.089345
1.317073	5.676959	-8.294359	100.400175	0.176760	0.784384	0.696266	7.908374	2.700678	-18.225572	16.925992	0.295414	40.078853	4.161701	0.000000	8.104196	-2.654957	5.475903	11.211816	0.195683	41.585488	8.033831	0.000000	0.162147	1.058714	0.168107	0.301123	1.408089	0.178614	0.266391	2.574157	0.178614	0.185318	2.574157	0.147094	0.150570	2.158929	0.136587	0.092651	1.639948	0.126080	1.158200	11.976382	0.934961	0.000000	0.000000	25.529402	-6.108194	19.721902	14.689249	-12.020308	137.126071	9.708368	5.925104	-7.150674	-9.888847	4.342869	-7.919777	11.690598	56.022168	88.643458	-13.924563	7.768397
